<svg width="187" height="216" viewBox="0 0 187 216" fill="none" xmlns="http://www.w3.org/2000/svg">
<path d="M36 32H150.667V118.667C150.667 150.331 124.998 176 93.3333 176C61.669 176 36 150.331 36 118.667V32Z" fill="#303030"/>
<path d="M86.9895 82.1685L90.4782 79.6782H74.8438L78.3325 82.1685V108.457L74.8438 110.947H90.4782L86.9895 108.457V82.1685Z" fill="#CABAAE"/>
<path d="M96.2324 79.678L99.7211 82.1683V87.7701L108.378 89.9714V82.1684L111.867 79.6781L96.2324 79.678Z" fill="#CABAAE"/>
<path d="M112.555 99.7449V93.0144L89.6367 87.1899V93.8827L99.7209 96.4625V108.457L96.2322 110.947H111.867L108.378 108.457V98.6766L112.555 99.7449Z" fill="#CABAAE"/>
<path d="M48.3316 81.5752C48.315 82.1584 48.4187 82.267 49.2161 82.3125L54.6558 82.6246C55.4532 82.6708 55.5738 82.5667 55.6541 81.9965L55.8739 82.0062C55.8276 82.3021 55.7734 82.8247 55.7263 83.3839C55.6823 83.9118 55.6454 84.4762 55.6391 84.8155L55.4193 84.8025C55.4359 84.2199 55.3322 84.1113 54.5348 84.0652L51.9009 83.9151L51.6993 86.3219L54.3332 86.4726C55.1306 86.5195 55.2521 86.4186 55.3322 85.8445L55.552 85.8556C55.5025 86.1826 55.4469 86.7234 55.4044 87.2287C55.3558 87.8102 55.3212 88.3566 55.3166 88.6642L55.098 88.652C55.1137 88.0734 55.0102 87.9661 54.2128 87.9192L48.7735 87.6073C47.9754 87.5611 47.8546 87.6619 47.7745 88.2321L47.5547 88.2191C47.6018 87.9136 47.6584 87.3691 47.707 86.7876C47.7493 86.2806 47.7838 85.7396 47.7894 85.4118L48.0092 85.4234C47.9926 86.0066 48.097 86.1152 48.8945 86.1607L51.4797 86.3089L51.6813 83.9014L49.0961 83.7531C48.2979 83.7077 48.1771 83.8071 48.097 84.3818L47.8773 84.3669C47.9268 84.0314 47.9853 83.4685 48.0286 82.9404C48.0758 82.3812 48.1087 81.858 48.1118 81.5615L48.3316 81.5752Z" fill="#CABAAE"/>
<path d="M58.1781 73.739C58.7425 73.7351 58.9966 73.568 59.0814 73.4087L59.287 73.4683C59.1127 73.7992 58.878 74.2869 58.6647 74.753C58.4229 75.2816 58.2104 75.7712 58.1004 76.063L57.8943 75.9983C58.0606 75.5848 58.0732 75.3696 57.7922 75.2825C57.6201 75.2387 57.4399 75.2207 57.2601 75.2293L55.3396 75.2105L54.4921 77.0593L55.1004 77.5117C55.3995 77.7577 55.7489 77.9577 56.1324 78.1027C56.6747 78.273 56.9478 78.026 57.1764 77.565L57.3829 77.6286C57.1859 78.0096 57.029 78.3262 56.8673 78.6799C56.7527 78.9295 56.6562 79.1656 56.5973 79.3431L56.3917 79.278C56.4506 79.0114 56.2992 78.678 55.6517 78.1989L50.5293 74.3702C50.5811 74.2818 50.6314 74.1837 50.6792 74.0796C50.7248 73.9801 50.7671 73.8748 50.7993 73.7813L58.1781 73.739ZM51.954 75.1816L54.3161 76.9325L55.1063 75.2065L51.954 75.1816Z" fill="#CABAAE"/>
<path d="M56.5956 65.3409C56.2315 65.839 56.2567 65.9754 56.9197 66.3434L61.4466 68.853C62.1105 69.221 62.2747 69.1846 62.6898 68.7197L62.8717 68.823C62.634 69.0856 62.2612 69.531 61.9206 69.9509C61.5305 70.4339 61.1727 70.8929 60.9846 71.157L60.8024 71.0556C61.1624 70.5608 61.1383 70.4244 60.4744 70.0556L55.9483 67.5461C55.2845 67.1788 55.1203 67.2152 54.7076 67.6761L54.5254 67.5753C54.7491 67.3309 55.1243 66.8822 55.5154 66.3986C55.8553 65.9787 56.2101 65.5242 56.4133 65.2388L56.5956 65.3409Z" fill="#CABAAE"/>
<path d="M70.4042 61.773C70.4215 62.0021 70.3725 62.2312 70.2614 62.4414C70.1503 62.6516 69.9803 62.8368 69.7654 62.9816C69.1861 63.425 68.611 63.5571 67.8661 63.0929L66.981 62.5349C66.2401 62.0674 65.6735 61.7744 65.1696 62.161L64.6455 62.5622L66.3602 64.0992C66.9026 64.5854 67.0728 64.5822 67.6073 64.2097L67.7563 64.3439C67.4503 64.5538 66.9621 64.9153 66.5132 65.2593C65.9968 65.6539 65.5196 66.0317 65.2622 66.2527L65.1131 66.1185C65.6036 65.707 65.6171 65.5692 65.0755 65.0829L61.3774 61.7665C60.8351 61.2802 60.6641 61.2841 60.1343 61.654L59.9844 61.5198C60.2708 61.3248 60.7786 60.9484 61.2315 60.6011C61.7596 60.1967 62.2807 59.7741 62.4856 59.6169C63.9868 58.4675 65.1963 58.3345 66.0157 59.0689C66.62 59.6105 66.9103 60.5318 65.6452 61.7481L65.6492 61.7456C66.7024 61.0662 67.4197 60.9954 68.1802 61.4414L69.1298 61.9913C69.6172 62.2781 69.8464 62.3327 70.0478 62.1786C70.1113 62.127 70.1586 62.0633 70.1857 61.993C70.2128 61.9228 70.2188 61.8482 70.2032 61.7756L70.4042 61.773ZM62.6622 60.7841L64.497 62.4283L64.8431 62.163C65.7971 61.4335 65.4443 60.7833 64.7599 60.1697C63.9767 59.4688 63.2547 59.2653 62.5217 59.8267C62.1081 60.1424 62.1481 60.3237 62.6622 60.7841Z" fill="#CABAAE"/>
<path d="M80.8806 52.5168C80.9976 52.7703 81.1177 53.0025 81.2111 53.154L80.9757 53.2294C79.9655 51.9082 79.2089 51.6164 78.2525 51.9214L78.0273 51.9929L80.281 56.841C80.6029 57.5341 80.8344 57.5737 81.7493 57.2922L81.8285 57.4613C81.3875 57.5888 80.62 57.8183 79.865 58.0594C79.1101 58.3006 78.4037 58.5405 78.0043 58.6816L77.9251 58.5119C78.8323 58.2136 78.9713 58.0542 78.6494 57.3617L76.3954 52.5143L76.1702 52.5858C75.2041 52.8947 74.8878 53.524 75.2041 55.0708L74.9687 55.1453C74.9147 54.9813 74.8157 54.7427 74.6987 54.4892C74.5676 54.2071 74.2756 53.6291 73.957 53.0687C74.8949 52.7976 76.2212 52.3744 77.137 52.0818C78.0529 51.7892 79.3691 51.3693 80.2841 51.0493C80.4976 51.6437 80.7496 52.2345 80.8806 52.5168Z" fill="#CABAAE"/>
<path d="M89.1973 55.1569C89.2798 55.865 89.4886 55.9462 90.4624 55.8779L90.4851 56.0769C90.0351 56.0997 89.2695 56.1471 88.4894 56.2094C87.8593 56.2601 87.2306 56.3232 86.7573 56.3745L86.7361 56.1932C87.4268 56.1113 87.5389 56.0086 87.4628 55.3493L86.939 50.8536C86.8621 50.195 86.723 50.1125 86.031 50.1411L86.0098 49.9591C86.3802 49.9474 87.0599 49.9018 87.6743 49.853C88.39 49.7958 89.1143 49.7205 89.3914 49.6983C91.4272 49.5357 92.5055 50.1904 92.6279 51.2436C92.7299 52.12 92.175 53.3247 89.5953 53.5308L89.013 53.5776L89.1973 55.1569ZM88.6805 50.7145L88.9921 53.3961L89.4623 53.359C90.7549 53.2563 90.9315 52.411 90.8239 51.4865C90.6914 50.3445 90.2612 49.8023 89.2675 49.8823C88.7072 49.9272 88.6074 50.091 88.6805 50.7145Z" fill="#CABAAE"/>
<path d="M108.753 52.0819C108.794 52.1394 108.857 52.1839 108.931 52.2087C109.081 52.2451 109.22 52.1026 109.388 51.7549L109.63 51.8134C109.441 52.2541 109.218 52.8529 108.84 53.9192L108.593 53.8596C108.764 53.03 108.779 52.5755 108.36 52.085C108.1 51.7158 107.676 51.445 107.179 51.3302C105.665 50.9622 104.56 52.2834 104.015 53.8281C103.461 55.393 103.592 56.9677 105.1 57.3338C105.586 57.456 106.109 57.419 106.563 57.2304C107.232 57.0126 107.533 56.5582 107.932 55.7279L108.18 55.7883C107.787 56.8974 107.576 57.5267 107.442 57.9994L107.2 57.941C107.285 57.5724 107.274 57.3988 107.124 57.3624C107.042 57.3495 106.957 57.3558 106.878 57.3806C106.256 57.5588 105.637 57.696 104.731 57.4762C102.496 56.9326 101.42 55.4068 102.128 53.4062C102.819 51.4528 104.823 50.5124 107.017 51.0449C107.727 51.2058 108.344 51.5741 108.753 52.0819Z" fill="#CABAAE"/>
<path d="M118.104 55.6168C117.455 55.3132 117.273 55.3289 116.849 55.8899L113.897 59.8108C113.534 60.2932 113.579 60.4109 114.07 60.6645L114.525 60.8992C115.385 61.3439 116.562 60.9887 117.52 60.054L117.733 60.1645C117.582 60.3316 117.393 60.5651 117.195 60.829C117.014 61.0703 116.648 61.5728 116.34 62.0831C115.723 61.734 114.85 61.2822 114.222 60.9577C113.599 60.6359 112.202 59.9139 111.17 59.4122L111.286 59.2574C111.895 59.5408 112.059 59.5156 112.482 58.9538L115.365 55.1238C115.788 54.5615 115.739 54.4263 115.168 54.1006L115.285 53.9485C115.587 54.1267 116.142 54.4231 116.738 54.7306C117.28 55.0108 117.863 55.3014 118.221 55.4626L118.104 55.6168Z" fill="#CABAAE"/>
<path d="M126.959 61.6715C126.438 61.2808 126.271 61.2756 125.709 61.7461L121.877 64.9508C121.315 65.4208 121.327 65.5622 121.799 65.9872L121.644 66.1166C121.378 65.8728 120.921 65.4854 120.487 65.129C119.988 64.7194 119.512 64.3411 119.234 64.1389L119.388 64.0094C119.906 64.3962 120.073 64.4021 120.635 63.932L124.468 60.7269C125.03 60.2568 125.018 60.1155 124.549 59.6938L124.704 59.5637C124.951 59.7919 125.413 60.1827 125.911 60.5926C126.346 60.9489 126.817 61.3233 127.115 61.5425L126.959 61.6715Z" fill="#CABAAE"/>
<path d="M134.468 70.3775C134.019 69.9224 133.707 69.9608 132.802 70.4205L127.574 73.0783C127.536 73.0186 127.488 72.954 127.44 72.8898C127.39 72.8215 127.34 72.7532 127.279 72.6759L129.941 66.6962L126.346 68.5215C125.317 69.0441 125.129 69.2328 125.554 69.9602L125.367 70.0571C125.236 69.8471 124.979 69.4824 124.773 69.2014C124.593 68.9582 124.385 68.6937 124.246 68.5396L124.434 68.4447C124.883 68.8992 125.195 68.8614 126.101 68.4017L130.318 66.2614C131 65.9148 131.029 65.7751 130.692 65.2686L130.88 65.1743C130.981 65.346 131.172 65.6203 131.351 65.8628C131.533 66.1091 131.721 66.3471 131.874 66.5189L129.624 71.7884L132.556 70.3002C133.586 69.7782 133.773 69.5896 133.348 68.862L133.536 68.7697C133.666 68.9797 133.924 69.3452 134.13 69.6254C134.31 69.8686 134.518 70.1331 134.657 70.2815L134.468 70.3775Z" fill="#CABAAE"/>
<path d="M137.648 77.4101C137.404 76.8627 137.259 76.7938 136.498 76.9946L131.302 78.3665C130.54 78.5674 130.472 78.6968 130.653 79.2566L130.443 79.3139C130.343 78.9954 130.155 78.4753 129.969 77.9921C129.755 77.4362 129.545 76.9174 129.412 76.63L129.622 76.5747C129.864 77.1177 130.009 77.1861 130.771 76.9855L135.966 75.6136C136.728 75.4128 136.797 75.2828 136.618 74.7282L136.827 74.6729C136.919 74.9711 137.109 75.4952 137.322 76.0506C137.508 76.5336 137.716 77.0479 137.857 77.3542L137.648 77.4101Z" fill="#CABAAE"/>
<path d="M139.001 86.929C138.951 86.9813 138.922 87.0457 138.92 87.1125C138.931 87.2405 139.141 87.2997 139.593 87.3088L139.611 87.5176C139.047 87.5248 138.291 87.5598 136.953 87.6391L136.935 87.4265C137.934 87.2692 138.453 87.1223 138.863 86.6262C139.189 86.2948 139.347 85.8715 139.304 85.4454C139.191 84.1418 137.311 83.7446 135.374 83.8597C133.409 83.9768 131.674 84.6281 131.786 85.9271C131.817 86.3466 132.042 86.74 132.414 87.0258C132.894 87.4705 133.514 87.5446 134.591 87.5655L134.609 87.7781C133.218 87.8607 132.432 87.9167 131.851 87.9776L131.833 87.7689C132.279 87.7064 132.472 87.6369 132.461 87.5082C132.446 87.4394 132.409 87.3753 132.353 87.3229C131.935 86.9022 131.564 86.4699 131.496 85.6891C131.33 83.7647 132.681 82.3965 135.191 82.2474C137.643 82.1025 139.407 83.3299 139.57 85.22C139.636 85.8279 139.434 86.435 139.001 86.929Z" fill="#CABAAE"/>
<path d="M134.666 97.5397C134.3 97.5388 133.943 97.4483 133.64 97.2794C133.336 97.1106 133.1 96.871 132.96 96.591C132.821 96.311 132.785 96.003 132.856 95.7059C132.928 95.4089 133.104 95.136 133.363 94.9219C133.621 94.7077 133.951 94.5618 134.309 94.5025C134.668 94.4433 135.04 94.4733 135.378 94.5889C135.716 94.7045 136.005 94.9005 136.208 95.152C136.412 95.4036 136.521 95.6995 136.522 96.0024C136.523 96.2046 136.476 96.4049 136.383 96.5918C136.29 96.7787 136.153 96.9486 135.981 97.0915C135.808 97.2344 135.603 97.3476 135.378 97.4245C135.152 97.5015 134.91 97.5406 134.666 97.5397Z" fill="#CABAAE"/>
<path d="M138.432 111.138C138.486 110.556 138.39 110.444 137.596 110.363L132.181 109.808C131.388 109.727 131.259 109.826 131.142 110.392L130.924 110.366C130.989 110.073 131.077 109.553 131.16 108.997C131.238 108.472 131.311 107.911 131.34 107.575L131.558 107.598C131.504 108.179 131.6 108.292 132.395 108.373L135.017 108.641L135.375 106.245L132.753 105.977C131.959 105.895 131.831 105.99 131.714 106.56L131.495 106.537C131.564 106.212 131.656 105.675 131.731 105.172C131.817 104.594 131.887 104.051 131.911 103.744L132.13 103.766C132.076 104.343 132.172 104.456 132.966 104.538L138.381 105.092C139.175 105.173 139.302 105.079 139.419 104.513L139.638 104.535C139.571 104.837 139.479 105.379 139.393 105.956C139.318 106.46 139.249 106.999 139.221 107.329L139.002 107.307C139.056 106.725 138.96 106.612 138.167 106.531L135.592 106.268L135.236 108.664L137.81 108.928C138.603 109.01 138.731 108.915 138.849 108.344L139.067 108.364C138.995 108.698 138.901 109.257 138.824 109.782C138.74 110.338 138.673 110.859 138.65 111.161L138.432 111.138Z" fill="#CABAAE"/>
<path d="M128.052 118.512C127.489 118.489 127.223 118.644 127.129 118.799L126.928 118.724C127.124 118.403 127.391 117.927 127.635 117.473C127.912 116.958 128.157 116.479 128.285 116.196L128.486 116.27C128.292 116.676 128.265 116.89 128.54 116.99C128.709 117.041 128.888 117.068 129.068 117.068L130.982 117.176L131.951 115.37L131.375 114.89C131.093 114.631 130.758 114.416 130.385 114.253C129.856 114.058 129.566 114.292 129.307 114.741L129.107 114.666C129.329 114.296 129.507 113.988 129.692 113.642C129.822 113.399 129.934 113.168 130.004 112.995L130.205 113.069C130.128 113.333 130.258 113.671 130.871 114.18L135.723 118.234C135.665 118.319 135.607 118.414 135.553 118.517C135.501 118.614 135.451 118.717 135.414 118.81L128.052 118.512ZM134.356 117.36L132.12 115.505L131.215 117.189L134.356 117.36Z" fill="#CABAAE"/>
<path d="M129.066 126.988C129.464 126.507 129.449 126.369 128.81 125.969L124.456 123.248C123.817 122.849 123.649 122.878 123.203 123.324L123.027 123.211C123.283 122.96 123.687 122.532 124.055 122.128C124.478 121.663 124.868 121.221 125.074 120.966L125.25 121.076C124.855 121.553 124.871 121.691 125.51 122.091L129.866 124.812C130.505 125.211 130.672 125.182 131.114 124.74L131.291 124.85C131.05 125.083 130.644 125.514 130.221 125.979C129.852 126.384 129.466 126.822 129.244 127.098L129.066 126.988Z" fill="#CABAAE"/>
<path d="M115.023 129.905C115.022 129.675 115.086 129.448 115.212 129.243C115.337 129.038 115.52 128.861 115.745 128.727C116.354 128.311 116.938 128.206 117.65 128.705L118.496 129.303C119.204 129.806 119.75 130.124 120.281 129.762L120.832 129.386L119.224 127.769C118.716 127.258 118.545 127.254 117.985 127.601L117.846 127.46C118.166 127.265 118.679 126.927 119.151 126.604C119.693 126.234 120.196 125.88 120.469 125.67L120.608 125.811C120.09 126.199 120.067 126.337 120.575 126.848L124.043 130.336C124.551 130.847 124.722 130.851 125.277 130.507L125.418 130.648C125.118 130.829 124.585 131.182 124.109 131.507C123.553 131.886 123.003 132.283 122.788 132.431C121.209 133.508 119.991 133.585 119.224 132.813C118.656 132.242 118.43 131.308 119.778 130.152L119.774 130.156C118.674 130.785 117.953 130.821 117.224 130.34L116.313 129.745C115.846 129.436 115.621 129.371 115.409 129.516C115.342 129.564 115.29 129.626 115.258 129.695C115.226 129.763 115.215 129.838 115.226 129.911L115.023 129.905ZM122.692 131.258L120.971 129.528L120.607 129.777C119.604 130.461 119.912 131.127 120.553 131.772C121.287 132.511 121.996 132.747 122.766 132.221C123.2 131.925 123.172 131.742 122.691 131.258H122.692Z" fill="#CABAAE"/>
<path d="M106.065 138.187C105.95 137.934 105.832 137.7 105.741 137.549L105.977 137.475C106.976 138.801 107.73 139.098 108.688 138.798L108.914 138.727L106.702 133.868C106.386 133.174 106.155 133.133 105.238 133.409L105.16 133.239C105.603 133.116 106.371 132.889 107.129 132.653C107.886 132.416 108.593 132.181 108.994 132.041L109.071 132.212C108.162 132.505 108.022 132.663 108.338 133.357L110.55 138.216L110.776 138.145C111.744 137.843 112.066 137.216 111.762 135.668L111.998 135.593C112.049 135.757 112.147 135.998 112.263 136.252C112.392 136.534 112.679 137.114 112.992 137.67C112.052 137.935 110.722 138.351 109.805 138.637C108.887 138.924 107.566 139.336 106.65 139.657C106.441 139.063 106.194 138.471 106.065 138.187Z" fill="#CABAAE"/>
<path d="M97.7732 135.514C97.694 134.806 97.4852 134.723 96.5131 134.789L96.4912 134.589C96.9412 134.568 97.706 134.524 98.4862 134.464C99.1162 134.417 99.745 134.355 100.219 134.306L100.239 134.487C99.548 134.566 99.435 134.668 99.5081 135.328L100.007 139.823C100.08 140.483 100.219 140.566 100.911 140.539L100.931 140.72C100.561 140.731 99.8818 140.774 99.2672 140.82C98.5515 140.875 97.8272 140.947 97.5492 140.969C95.5143 141.124 94.4391 140.465 94.3228 139.412C94.2254 138.537 94.7867 137.333 97.3664 137.137L97.9487 137.092L97.7732 135.514ZM98.2653 139.956L97.9687 137.274L97.4978 137.31C96.2051 137.409 96.0246 138.252 96.1266 139.177C96.2537 140.319 96.68 140.862 97.6734 140.785C98.2342 140.743 98.3346 140.579 98.2648 139.956L98.2653 139.956Z" fill="#CABAAE"/>
<path d="M80.5838 139.149C80.539 139.093 80.4733 139.051 80.397 139.029C80.2456 138.999 80.1143 139.148 79.9684 139.503L79.7227 139.454C79.8847 139.006 80.0711 138.399 80.3827 137.317L80.6331 137.366C80.5138 138.202 80.5264 138.657 80.9751 139.13C81.2583 139.488 81.6982 139.74 82.2019 139.834C83.737 140.137 84.758 138.771 85.2102 137.205C85.6668 135.618 85.4393 134.051 83.9098 133.749C83.4172 133.647 82.8962 133.706 82.4548 133.914C81.7994 134.159 81.5272 134.626 81.1787 135.472L80.9283 135.423C81.2524 134.297 81.4243 133.66 81.5287 133.182L81.7744 133.23C81.7115 133.602 81.7335 133.775 81.8851 133.805C81.9687 133.815 82.054 133.804 82.1308 133.775C82.7414 133.572 83.3512 133.409 84.2694 133.591C86.5359 134.038 87.7045 135.517 87.1207 137.545C86.5501 139.527 84.6055 140.55 82.3814 140.11C81.6617 139.98 81.0232 139.638 80.5838 139.149Z" fill="#CABAAE"/>
<path d="M71.0178 135.998C71.6856 136.276 71.8678 136.252 72.2562 135.673L74.9718 131.629C75.3061 131.131 75.2544 131.016 74.7474 130.782L74.2781 130.566C73.3905 130.157 72.2345 130.561 71.3335 131.536L71.113 131.435C71.2543 131.26 71.4286 131.019 71.6115 130.748C71.7787 130.499 72.1137 129.981 72.3916 129.457C73.0288 129.782 73.9298 130.196 74.5772 130.495C75.2208 130.791 76.6617 131.455 77.7243 131.914L77.6163 132.073C76.9908 131.816 76.8275 131.847 76.4391 132.427L73.7865 136.379C73.398 136.959 73.456 137.092 74.0455 137.394L73.9388 137.557C73.6248 137.392 73.0528 137.119 72.4382 136.835C71.8802 136.578 71.2783 136.311 70.9102 136.158L71.0178 135.998Z" fill="#CABAAE"/>
<path d="M61.809 130.293C62.3537 130.662 62.5207 130.661 63.0561 130.169L66.7062 126.813C67.2414 126.321 67.2211 126.18 66.7242 125.774L66.8719 125.638C67.1528 125.871 67.6324 126.241 68.0867 126.581C68.6087 126.97 69.107 127.33 69.3966 127.522L69.249 127.657C68.709 127.291 68.542 127.291 68.007 127.783L64.3557 131.14C63.8206 131.632 63.8409 131.773 64.3338 132.176L64.1862 132.316C63.9257 132.097 63.4422 131.725 62.9195 131.334C62.4651 130.996 61.9714 130.639 61.6621 130.428L61.809 130.293Z" fill="#CABAAE"/>
<path d="M53.8061 121.89C54.2809 122.326 54.5902 122.276 55.4668 121.781L60.5318 118.927C60.5734 118.985 60.6244 119.048 60.6759 119.11C60.7299 119.176 60.7849 119.242 60.8494 119.308L58.5394 125.383L62.0216 123.419C63.019 122.856 63.1949 122.66 62.7286 121.95L62.9099 121.85C63.0519 122.054 63.3299 122.407 63.5534 122.679C63.7466 122.913 63.9694 123.168 64.1169 123.316L63.9356 123.419C63.46 122.983 63.1515 123.033 62.2741 123.529L58.1892 125.833C57.5292 126.206 57.5081 126.346 57.8737 126.838L57.6924 126.941C57.5803 126.773 57.3745 126.509 57.1816 126.273C56.9854 126.035 56.7838 125.805 56.6212 125.638L58.5597 120.288L55.7196 121.891C54.7229 122.453 54.547 122.65 55.0132 123.359L54.8319 123.465C54.6892 123.26 54.4113 122.907 54.1884 122.636C53.9953 122.401 53.7724 122.146 53.625 121.993L53.8061 121.89Z" fill="#CABAAE"/>
<path d="M50.2082 114.977C50.4829 115.514 50.632 115.577 51.3808 115.347L56.4906 113.775C57.2402 113.543 57.3007 113.411 57.0886 112.86L57.2951 112.797C57.4128 113.111 57.631 113.622 57.8438 114.098C58.0886 114.644 58.3287 115.153 58.4779 115.434L58.2714 115.497C57.9984 114.966 57.8492 114.902 57.1014 115.132L51.9905 116.705C51.2402 116.936 51.1805 117.068 51.3902 117.614L51.1846 117.678C51.0755 117.384 50.8557 116.868 50.6109 116.323C50.3981 115.848 50.1609 115.343 50.002 115.04L50.2082 114.977Z" fill="#CABAAE"/>
<path d="M48.3023 105.527C48.3491 105.473 48.3738 105.408 48.3728 105.341C48.3548 105.214 48.1413 105.163 47.6888 105.172L47.6582 104.964C48.2216 104.936 48.9744 104.87 50.307 104.739L50.3376 104.951C49.3495 105.146 48.8378 105.313 48.458 105.826C48.151 106.169 48.0168 106.598 48.0836 107.022C48.2704 108.319 50.1716 108.643 52.1002 108.452C54.056 108.259 55.752 107.541 55.5659 106.248C55.5108 105.83 55.2642 105.445 54.8768 105.174C54.3728 104.749 53.7491 104.699 52.6716 104.72L52.641 104.508C54.027 104.372 54.8086 104.285 55.3855 104.201L55.4154 104.409C54.9728 104.488 54.7845 104.566 54.8025 104.694C54.821 104.762 54.8617 104.824 54.9202 104.874C55.3621 105.278 55.7576 105.696 55.869 106.473C56.1444 108.389 54.873 109.808 52.3735 110.055C49.9328 110.296 48.1017 109.138 47.8317 107.257C47.7311 106.652 47.8982 106.038 48.3023 105.527Z" fill="#CABAAE"/>
<path d="M52.5455 94.541C52.9111 94.5419 53.2681 94.6325 53.5716 94.8013C53.8752 94.9701 54.1115 95.2095 54.2509 95.4895C54.3903 95.7695 54.4265 96.0773 54.3549 96.3743C54.2834 96.6713 54.1072 96.9441 53.8487 97.1582C53.5902 97.3723 53.261 97.5182 52.9025 97.5775C52.544 97.6368 52.1723 97.6069 51.8344 97.4914C51.4965 97.3759 51.2074 97.1801 51.0036 96.9287C50.7999 96.6772 50.6905 96.3814 50.6895 96.0786C50.6884 95.8764 50.7356 95.6761 50.8285 95.4891C50.9214 95.3021 51.058 95.1323 51.2306 94.9893C51.4032 94.8463 51.6082 94.7331 51.8339 94.6562C52.0596 94.5792 52.3015 94.5401 52.5455 94.541Z" fill="#CABAAE"/>
<g filter="url(#filter0_d_2007_7342)">
<path d="M36 32H150.667V118.667C150.667 150.331 124.998 176 93.3333 176C61.669 176 36 150.331 36 118.667V32Z" fill="#303030"/>
<path d="M87.5366 93.872L90.7367 91.1147H76.396L79.596 93.872V122.978L76.396 125.735H90.7367L87.5366 122.978V93.872Z" fill="#CABAAE"/>
<path d="M96.0142 91.1146L99.2142 93.8718V100.074L107.155 102.511V93.872L110.355 91.1148L96.0142 91.1146Z" fill="#CABAAE"/>
<path d="M110.986 113.332V105.88L89.9647 99.4316V106.842L99.2144 109.698V122.978L96.0144 125.735H110.355L107.155 122.978V112.15L110.986 113.332Z" fill="#CABAAE"/>
<path d="M52.0785 93.2153C52.0633 93.861 52.1584 93.9812 52.8898 94.0316L57.8793 94.3771C58.6107 94.4283 58.7214 94.3131 58.795 93.6817L58.9966 93.6924C58.9542 94.02 58.9045 94.5987 58.8612 95.2178C58.8209 95.8023 58.7871 96.4272 58.7813 96.8028L58.5797 96.7885C58.5949 96.1434 58.4998 96.0232 57.7683 95.9722L55.3524 95.8059L55.1675 98.4707L57.5834 98.6376C58.3148 98.6895 58.4263 98.5779 58.4998 97.9422L58.7014 97.9544C58.656 98.3165 58.6049 98.9153 58.566 99.4747C58.5214 100.119 58.4897 100.724 58.4854 101.064L58.285 101.051C58.2993 100.41 58.2044 100.291 57.473 100.239L52.4838 99.8939C51.7517 99.8427 51.6409 99.9543 51.5675 100.586L51.3659 100.571C51.4091 100.233 51.461 99.6302 51.5055 98.9863C51.5443 98.425 51.576 97.826 51.5812 97.4631L51.7828 97.476C51.7676 98.1217 51.8633 98.2419 52.5948 98.2922L54.9661 98.4563L55.151 95.7907L52.7797 95.6266C52.0476 95.5763 51.9368 95.6864 51.8633 96.3227L51.6617 96.3062C51.7071 95.9347 51.7608 95.3114 51.8006 94.7268C51.8439 94.1077 51.8741 93.5283 51.8769 93.2001L52.0785 93.2153Z" fill="#CABAAE"/>
<path d="M61.1106 84.5391C61.6282 84.5348 61.8614 84.3498 61.9391 84.1734L62.1277 84.2395C61.9679 84.6058 61.7526 85.1457 61.5569 85.6618C61.3352 86.2471 61.1402 86.7892 61.0393 87.1123L60.8502 87.0406C61.0028 86.5828 61.0144 86.3445 60.7566 86.2481C60.5987 86.1996 60.4335 86.1796 60.2686 86.1892L58.507 86.1684L57.7297 88.2153L58.2876 88.7162C58.562 88.9885 58.8824 89.2101 59.2341 89.3705C59.7316 89.5591 59.9821 89.2857 60.1918 88.7752L60.3812 88.8457C60.2005 89.2675 60.0566 89.618 59.9083 90.0097C59.8031 90.286 59.7146 90.5474 59.6606 90.7439L59.4721 90.6719C59.5261 90.3767 59.3872 90.0075 58.7933 89.477L54.0948 85.238C54.1423 85.1401 54.1884 85.0315 54.2323 84.9162C54.2741 84.8061 54.3129 84.6895 54.3424 84.586L61.1106 84.5391ZM55.4016 86.1363L57.5682 88.075L58.293 86.1639L55.4016 86.1363Z" fill="#CABAAE"/>
<path d="M59.6595 75.241C59.3255 75.7925 59.3486 75.9435 59.9567 76.351L64.1091 79.1295C64.718 79.537 64.8686 79.4967 65.2493 78.9819L65.4163 79.0964C65.1982 79.3871 64.8562 79.8803 64.5438 80.3452C64.186 80.88 63.8578 81.3882 63.6853 81.6805L63.5182 81.5683C63.8484 81.0205 63.8263 80.8694 63.2173 80.4611L59.0658 77.6826C58.4569 77.2759 58.3063 77.3162 57.9277 77.8265L57.7606 77.7149C57.9658 77.4443 58.3099 76.9475 58.6687 76.4121C58.9804 75.9472 59.3059 75.4439 59.4923 75.1279L59.6595 75.241Z" fill="#CABAAE"/>
<path d="M72.3241 71.2904C72.3399 71.544 72.295 71.7977 72.1931 72.0304C72.0912 72.2632 71.9352 72.4682 71.7381 72.6286C71.2068 73.1194 70.6792 73.2657 69.996 72.7517L69.1842 72.1339C68.5046 71.6163 67.9848 71.2919 67.5227 71.72L67.0419 72.1641L68.6147 73.8659C69.1122 74.4043 69.2684 74.4006 69.7586 73.9882L69.8953 74.1368C69.6146 74.3693 69.1668 74.7695 68.755 75.1504C68.2813 75.5872 67.8436 76.0056 67.6075 76.2503L67.4708 76.1017C67.9207 75.646 67.9331 75.4934 67.4363 74.955L64.0443 71.2831C63.5468 70.7447 63.39 70.749 62.904 71.1587L62.7665 71.0101C63.0292 70.7941 63.495 70.3774 63.9104 69.9929C64.3948 69.5451 64.8728 69.0772 65.0607 68.9032C66.4377 67.6306 67.5471 67.4833 68.2987 68.2964C68.853 68.8961 69.1193 69.9161 67.9589 71.2628L67.9625 71.26C68.9286 70.5078 69.5865 70.4294 70.2841 70.9232L71.1551 71.5321C71.6022 71.8496 71.8124 71.91 71.9972 71.7395C72.0554 71.6823 72.0988 71.6118 72.1236 71.534C72.1484 71.4562 72.1539 71.3736 72.1396 71.2932L72.3241 71.2904ZM65.2227 70.1954L66.9056 72.0159L67.2232 71.7222C68.0982 70.9145 67.7746 70.1946 67.1469 69.5152C66.4285 68.7392 65.7662 68.5139 65.0939 69.1355C64.7145 69.485 64.7511 69.6858 65.2227 70.1954Z" fill="#CABAAE"/>
<path d="M81.9348 61.0422C82.0422 61.3229 82.1523 61.5799 82.238 61.7477L82.022 61.8312C81.0954 60.3684 80.4015 60.0453 79.5242 60.3829L79.3177 60.4622L81.3849 65.8298C81.6801 66.5972 81.8924 66.6412 82.7317 66.3294L82.8043 66.5167C82.3998 66.6578 81.6958 66.9119 81.0033 67.1789C80.3108 67.4459 79.6629 67.7115 79.2965 67.8677L79.2239 67.6798C80.0561 67.3496 80.1835 67.1731 79.8883 66.4064L77.8208 61.0394L77.6142 61.1186C76.7281 61.4606 76.438 62.1573 76.7281 63.8699L76.5121 63.9525C76.4626 63.7708 76.3718 63.5067 76.2645 63.226C76.1443 62.9136 75.8765 62.2737 75.5842 61.6532C76.4444 61.3531 77.661 60.8845 78.501 60.5606C79.3411 60.2366 80.5484 59.7717 81.3877 59.4174C81.5835 60.0755 81.8146 60.7296 81.9348 61.0422Z" fill="#CABAAE"/>
<path d="M89.5615 63.9653C89.6371 64.7492 89.8287 64.8392 90.7219 64.7635L90.7427 64.9838C90.3299 65.009 89.6277 65.0616 88.9121 65.1306C88.3343 65.1867 87.7575 65.2565 87.3234 65.3133L87.304 65.1126C87.9375 65.0219 88.0404 64.9082 87.9705 64.1782L87.49 59.2007C87.4195 58.4715 87.2919 58.3802 86.6572 58.4119L86.6377 58.2103C86.9775 58.1974 87.601 58.1469 88.1645 58.0929C88.821 58.0295 89.4854 57.9461 89.7395 57.9215C91.6069 57.7415 92.5959 58.4663 92.7082 59.6325C92.8018 60.6028 92.2928 61.9366 89.9266 62.1648L89.3924 62.2167L89.5615 63.9653ZM89.0875 59.0467L89.3733 62.0157L89.8046 61.9746C90.9902 61.8609 91.1522 60.9251 91.0535 59.9014C90.9319 58.6371 90.5373 58.0367 89.6259 58.1252C89.1119 58.1749 89.0205 58.3564 89.0875 59.0467Z" fill="#CABAAE"/>
<path d="M107.5 60.5606C107.538 60.6242 107.595 60.6735 107.664 60.7009C107.801 60.7412 107.928 60.5835 108.083 60.1985L108.305 60.2632C108.131 60.7513 107.927 61.4142 107.58 62.5948L107.354 62.5288C107.51 61.6103 107.524 61.1071 107.14 60.5641C106.901 60.1552 106.513 59.8554 106.056 59.7283C104.668 59.3208 103.654 60.7836 103.154 62.4939C102.646 64.2265 102.766 65.97 104.15 66.3754C104.595 66.5107 105.075 66.4698 105.491 66.2609C106.105 66.0197 106.381 65.5167 106.748 64.5974L106.974 64.6642C106.614 65.8923 106.421 66.589 106.297 67.1124L106.076 67.0477C106.154 66.6395 106.144 66.4473 106.006 66.4071C105.931 66.3928 105.852 66.3998 105.78 66.4272C105.21 66.6245 104.642 66.7764 103.811 66.533C101.761 65.9312 100.774 64.2419 101.423 62.0269C102.057 59.864 103.895 58.8229 105.908 59.4125C106.559 59.5906 107.125 59.9984 107.5 60.5606Z" fill="#CABAAE"/>
<path d="M116.077 64.4743C115.482 64.1381 115.314 64.1555 114.926 64.7766L112.218 69.1178C111.885 69.6519 111.926 69.7822 112.377 70.063L112.794 70.3229C113.583 70.8152 114.663 70.4219 115.541 69.3871L115.737 69.5094C115.598 69.6943 115.425 69.9529 115.243 70.2451C115.077 70.5123 114.741 71.0686 114.459 71.6336C113.893 71.2471 113.092 70.7469 112.516 70.3876C111.945 70.0313 110.663 69.2319 109.717 68.6765L109.823 68.5051C110.382 68.8188 110.532 68.7909 110.92 68.1689L113.565 63.9284C113.953 63.3058 113.908 63.1561 113.384 62.7955L113.491 62.6271C113.769 62.8244 114.277 63.1526 114.824 63.4931C115.321 63.8033 115.856 64.1251 116.184 64.3036L116.077 64.4743Z" fill="#CABAAE"/>
<path d="M124.199 71.1782C123.721 70.7456 123.568 70.7399 123.052 71.2608L119.537 74.809C119.022 75.3294 119.033 75.4859 119.466 75.9565L119.324 76.0998C119.079 75.8298 118.66 75.4009 118.262 75.0063C117.804 74.5528 117.368 74.1339 117.113 73.91L117.255 73.7667C117.73 74.195 117.883 74.2014 118.398 73.681L121.914 70.1323C122.429 69.6119 122.418 69.4554 121.988 68.9885L122.13 68.8445C122.357 69.0971 122.78 69.5298 123.237 69.9837C123.636 70.3781 124.069 70.7927 124.342 71.0354L124.199 71.1782Z" fill="#CABAAE"/>
<path d="M131.086 80.8174C130.674 80.3135 130.388 80.356 129.557 80.865L124.762 83.8076C124.727 83.7416 124.684 83.6701 124.64 83.5989C124.594 83.5233 124.547 83.4477 124.492 83.3622L126.934 76.7415L123.636 78.7624C122.692 79.3411 122.52 79.5499 122.91 80.3553L122.738 80.4626C122.618 80.2302 122.382 79.8263 122.193 79.5153C122.028 79.246 121.837 78.9531 121.71 78.7825L121.883 78.6774C122.294 79.1806 122.58 79.1388 123.411 78.6298L127.279 76.2601C127.905 75.8764 127.932 75.7217 127.622 75.1608L127.795 75.0565C127.887 75.2465 128.063 75.5503 128.227 75.8188C128.394 76.0915 128.566 76.355 128.707 76.5452L126.643 82.3795L129.332 80.7318C130.277 80.1539 130.449 79.945 130.059 79.1395L130.231 79.0373C130.35 79.2698 130.587 79.6744 130.776 79.9847C130.941 80.2539 131.131 80.5468 131.259 80.7111L131.086 80.8174Z" fill="#CABAAE"/>
<path d="M134.003 88.6037C133.779 87.9976 133.646 87.9213 132.948 88.1437L128.182 89.6626C127.483 89.885 127.421 90.0283 127.587 90.6481L127.395 90.7115C127.303 90.3589 127.131 89.783 126.959 89.2481C126.763 88.6326 126.571 88.0582 126.449 87.74L126.641 87.6788C126.863 88.2799 126.997 88.3557 127.695 88.1336L132.461 86.6147C133.16 86.3923 133.222 86.2483 133.058 85.6343L133.25 85.573C133.334 85.9032 133.509 86.4836 133.704 87.0984C133.874 87.6332 134.066 88.2026 134.195 88.5418L134.003 88.6037Z" fill="#CABAAE"/>
<path d="M135.245 99.143C135.198 99.2008 135.172 99.2721 135.17 99.346C135.181 99.4879 135.373 99.5534 135.788 99.5635L135.805 99.7946C135.287 99.8026 134.594 99.8413 133.366 99.9292L133.35 99.6937C134.266 99.5196 134.742 99.3569 135.118 98.8076C135.417 98.4407 135.562 97.9721 135.522 97.5004C135.419 96.057 133.695 95.6172 131.917 95.7446C130.116 95.8742 128.524 96.5954 128.627 98.0336C128.655 98.4981 128.862 98.9337 129.203 99.2501C129.643 99.7425 130.211 99.8245 131.2 99.8476L131.216 100.083C129.94 100.175 129.219 100.236 128.686 100.304L128.669 100.073C129.079 100.004 129.256 99.9267 129.246 99.7842C129.232 99.708 129.198 99.637 129.147 99.579C128.763 99.1132 128.423 98.6346 128.361 97.7701C128.209 95.6395 129.448 94.1246 131.75 93.9595C133.999 93.7991 135.617 95.158 135.766 97.2507C135.827 97.9238 135.641 98.596 135.245 99.143Z" fill="#CABAAE"/>
<path d="M131.268 110.891C130.932 110.89 130.605 110.789 130.326 110.602C130.048 110.416 129.831 110.15 129.703 109.84C129.575 109.53 129.542 109.189 129.607 108.86C129.673 108.531 129.835 108.229 130.072 107.992C130.309 107.755 130.611 107.594 130.94 107.528C131.269 107.462 131.61 107.496 131.92 107.624C132.23 107.752 132.495 107.969 132.682 108.247C132.869 108.526 132.969 108.853 132.97 109.189C132.971 109.412 132.928 109.634 132.843 109.841C132.757 110.048 132.632 110.236 132.474 110.394C132.315 110.553 132.127 110.678 131.92 110.763C131.713 110.848 131.491 110.892 131.268 110.891Z" fill="#CABAAE"/>
<path d="M134.723 125.947C134.773 125.303 134.685 125.178 133.956 125.088L128.99 124.474C128.262 124.384 128.144 124.494 128.036 125.121L127.836 125.092C127.896 124.767 127.977 124.192 128.053 123.577C128.125 122.995 128.192 122.374 128.218 122.002L128.418 122.027C128.369 122.671 128.457 122.796 129.186 122.885L131.591 123.183L131.919 120.529L129.514 120.232C128.785 120.142 128.668 120.247 128.561 120.878L128.36 120.853C128.424 120.493 128.508 119.899 128.577 119.342C128.656 118.702 128.72 118.1 128.742 117.76L128.942 117.785C128.893 118.424 128.981 118.549 129.71 118.639L134.676 119.252C135.405 119.342 135.521 119.238 135.629 118.612L135.829 118.636C135.768 118.971 135.684 119.571 135.605 120.21C135.536 120.768 135.473 121.364 135.446 121.73L135.246 121.705C135.296 121.061 135.208 120.936 134.48 120.846L132.119 120.555L131.791 123.207L134.152 123.5C134.88 123.59 134.998 123.485 135.105 122.853L135.306 122.876C135.24 123.245 135.154 123.864 135.082 124.446C135.006 125.061 134.944 125.638 134.923 125.972L134.723 125.947Z" fill="#CABAAE"/>
<path d="M125.202 134.111C124.686 134.086 124.442 134.257 124.355 134.429L124.171 134.346C124.351 133.99 124.596 133.464 124.82 132.96C125.074 132.39 125.298 131.86 125.416 131.547L125.6 131.629C125.423 132.078 125.397 132.315 125.65 132.426C125.805 132.483 125.969 132.512 126.134 132.512L127.89 132.632L128.779 130.633L128.25 130.101C127.992 129.814 127.684 129.576 127.342 129.396C126.857 129.18 126.591 129.438 126.354 129.936L126.169 129.853C126.373 129.443 126.536 129.102 126.706 128.719C126.826 128.45 126.929 128.195 126.993 128.003L127.177 128.085C127.107 128.377 127.225 128.752 127.788 129.315L132.238 133.803C132.185 133.898 132.132 134.003 132.083 134.117C132.035 134.224 131.989 134.338 131.955 134.441L125.202 134.111ZM130.985 132.835L128.933 130.782L128.103 132.646L130.985 132.835Z" fill="#CABAAE"/>
<path d="M126.133 143.495C126.498 142.963 126.483 142.81 125.897 142.367L121.903 139.355C121.318 138.913 121.163 138.945 120.755 139.439L120.593 139.314C120.828 139.036 121.198 138.562 121.536 138.114C121.924 137.599 122.281 137.111 122.471 136.828L122.632 136.949C122.27 137.478 122.284 137.631 122.87 138.073L126.866 141.086C127.452 141.528 127.605 141.496 128.011 141.007L128.173 141.128C127.952 141.387 127.58 141.864 127.191 142.379C126.853 142.826 126.499 143.312 126.296 143.617L126.133 143.495Z" fill="#CABAAE"/>
<path d="M113.252 146.725C113.251 146.47 113.31 146.219 113.425 145.992C113.54 145.766 113.708 145.57 113.914 145.421C114.472 144.961 115.008 144.844 115.662 145.397L116.438 146.059C117.087 146.615 117.588 146.968 118.075 146.567L118.58 146.151L117.105 144.361C116.639 143.795 116.482 143.79 115.969 144.174L115.841 144.018C116.135 143.802 116.605 143.428 117.038 143.071C117.536 142.661 117.997 142.268 118.247 142.037L118.375 142.193C117.9 142.622 117.878 142.774 118.345 143.341L121.525 147.202C121.992 147.768 122.149 147.773 122.657 147.392L122.786 147.548C122.511 147.748 122.022 148.139 121.586 148.499C121.076 148.918 120.571 149.359 120.374 149.522C118.926 150.715 117.809 150.799 117.105 149.945C116.584 149.313 116.377 148.279 117.613 146.999L117.609 147.003C116.601 147.699 115.939 147.74 115.271 147.206L114.435 146.548C114.006 146.206 113.8 146.134 113.606 146.294C113.545 146.348 113.497 146.416 113.468 146.492C113.438 146.569 113.428 146.651 113.438 146.732L113.252 146.725ZM120.286 148.223L118.708 146.308L118.374 146.583C117.454 147.341 117.736 148.078 118.324 148.793C118.997 149.61 119.647 149.872 120.354 149.29C120.753 148.961 120.727 148.759 120.286 148.223Z" fill="#CABAAE"/>
<path d="M105.034 155.895C104.928 155.615 104.82 155.356 104.737 155.189L104.953 155.107C105.87 156.575 106.561 156.903 107.44 156.571L107.647 156.493L105.618 151.114C105.328 150.345 105.116 150.299 104.275 150.605L104.204 150.417C104.61 150.28 105.315 150.029 106.009 149.767C106.704 149.505 107.353 149.245 107.721 149.091L107.791 149.279C106.957 149.604 106.829 149.779 107.119 150.547L109.147 155.927L109.355 155.849C110.243 155.514 110.538 154.82 110.259 153.106L110.475 153.023C110.523 153.205 110.613 153.471 110.719 153.752C110.837 154.065 111.1 154.707 111.387 155.322C110.525 155.616 109.306 156.076 108.464 156.394C107.622 156.711 106.411 157.167 105.57 157.523C105.379 156.865 105.152 156.209 105.034 155.895Z" fill="#CABAAE"/>
<path d="M97.4277 152.935C97.355 152.151 97.1635 152.06 96.2719 152.132L96.2518 151.911C96.6645 151.888 97.3661 151.839 98.0817 151.773C98.6596 151.721 99.2363 151.652 99.6712 151.598L99.6899 151.798C99.0557 151.886 98.952 151.999 99.019 152.729L99.4769 157.707C99.5437 158.437 99.6712 158.529 100.306 158.499L100.324 158.7C99.9844 158.712 99.3618 158.759 98.7981 158.81C98.1416 158.87 97.4772 158.951 97.2223 158.975C95.3557 159.147 94.3695 158.417 94.2629 157.251C94.1735 156.282 94.6883 154.95 97.0545 154.733L97.5887 154.683L97.4277 152.935ZM97.8791 157.853L97.607 154.884L97.1751 154.924C95.9894 155.033 95.8238 155.967 95.9174 156.991C96.034 158.255 96.425 158.857 97.3362 158.772C97.8505 158.725 97.9432 158.544 97.8791 157.853Z" fill="#CABAAE"/>
<path d="M81.6617 156.96C81.6206 156.898 81.5604 156.852 81.4903 156.827C81.3515 156.794 81.2311 156.959 81.0972 157.352L80.8718 157.298C81.0204 156.802 81.1915 156.129 81.4773 154.931L81.7069 154.986C81.5975 155.912 81.609 156.416 82.0206 156.939C82.2804 157.335 82.6839 157.614 83.1459 157.719C84.5539 158.054 85.4904 156.542 85.9052 154.808C86.3241 153.05 86.1154 151.316 84.7124 150.981C84.2606 150.868 83.7827 150.933 83.3779 151.164C82.7767 151.435 82.527 151.952 82.2074 152.889L81.9777 152.834C82.2749 151.588 82.4326 150.883 82.5284 150.353L82.7537 150.407C82.6961 150.819 82.7163 151.01 82.8553 151.043C82.932 151.054 83.0102 151.043 83.0807 151.01C83.6407 150.785 84.2001 150.605 85.0423 150.806C87.1212 151.301 88.1931 152.939 87.6577 155.185C87.1343 157.378 85.3506 158.512 83.3105 158.024C82.6504 157.88 82.0648 157.502 81.6617 156.96Z" fill="#CABAAE"/>
<path d="M72.8878 153.472C73.5003 153.779 73.6674 153.752 74.0237 153.112L76.5146 148.634C76.8212 148.083 76.7738 147.955 76.3087 147.696L75.8782 147.457C75.0641 147.004 74.0037 147.452 73.1774 148.531L72.9751 148.419C73.1047 148.225 73.2645 147.959 73.4323 147.658C73.5857 147.383 73.893 146.809 74.1479 146.23C74.7324 146.589 75.5588 147.048 76.1527 147.378C76.7429 147.706 78.0646 148.442 79.0393 148.95L78.9402 149.126C78.3665 148.841 78.2167 148.876 77.8604 149.518L75.4273 153.893C75.071 154.535 75.1242 154.683 75.6649 155.017L75.567 155.198C75.2791 155.015 74.7543 154.712 74.1906 154.398C73.6788 154.113 73.1267 153.818 72.789 153.649L72.8878 153.472Z" fill="#CABAAE"/>
<path d="M64.4401 147.155C64.9397 147.564 65.093 147.563 65.584 147.018L68.9321 143.302C69.423 142.757 69.4043 142.601 68.9486 142.151L69.084 142.001C69.3417 142.259 69.7816 142.668 70.1983 143.045C70.6772 143.476 71.1342 143.874 71.3998 144.087L71.2645 144.237C70.7691 143.831 70.6159 143.831 70.1252 144.376L66.7761 148.093C66.2852 148.638 66.3039 148.793 66.756 149.24L66.6206 149.394C66.3817 149.152 65.9382 148.74 65.4587 148.308C65.0419 147.933 64.5891 147.538 64.3054 147.305L64.4401 147.155Z" fill="#CABAAE"/>
<path d="M57.1004 137.851C57.5359 138.334 57.8196 138.278 58.6237 137.73L63.2696 134.571C63.3077 134.635 63.3544 134.704 63.4016 134.773C63.4512 134.846 63.5017 134.92 63.5608 134.993L61.442 141.718L64.636 139.544C65.5509 138.92 65.7122 138.704 65.2846 137.918L65.4508 137.807C65.5811 138.033 65.836 138.424 66.0411 138.725C66.2183 138.984 66.4227 139.267 66.5579 139.43L66.3916 139.544C65.9554 139.062 65.6724 139.117 64.8677 139.666L61.1208 142.217C60.5154 142.629 60.496 142.785 60.8314 143.329L60.6651 143.444C60.5622 143.258 60.3735 142.965 60.1965 142.704C60.0166 142.44 59.8316 142.186 59.6825 142.001L61.4606 136.078L58.8555 137.852C57.9413 138.475 57.78 138.692 58.2076 139.478L58.0413 139.595C57.9104 139.368 57.6555 138.977 57.4511 138.677C57.2739 138.417 57.0695 138.135 56.9343 137.965L57.1004 137.851Z" fill="#CABAAE"/>
<path d="M53.7989 130.197C54.0509 130.792 54.1876 130.861 54.8745 130.606L59.5614 128.866C60.249 128.61 60.3044 128.463 60.1099 127.853L60.2993 127.784C60.4073 128.132 60.6074 128.697 60.8026 129.224C61.0271 129.828 61.2474 130.392 61.3843 130.703L61.1949 130.773C60.9444 130.185 60.8075 130.114 60.1217 130.369L55.4337 132.11C54.7455 132.366 54.6907 132.512 54.883 133.117L54.6945 133.188C54.5944 132.862 54.3928 132.291 54.1683 131.688C53.9731 131.161 53.7555 130.602 53.6097 130.267L53.7989 130.197Z" fill="#CABAAE"/>
<path d="M52.0516 119.735C52.0945 119.675 52.1172 119.602 52.1163 119.529C52.0998 119.388 51.904 119.331 51.4889 119.341L51.4608 119.111C51.9776 119.079 52.6681 119.007 53.8904 118.861L53.9185 119.096C53.0122 119.313 52.5428 119.498 52.1944 120.065C51.9129 120.445 51.7898 120.92 51.851 121.389C52.0223 122.826 53.7662 123.184 55.5352 122.973C57.3292 122.759 58.8848 121.964 58.7141 120.532C58.6636 120.069 58.4373 119.644 58.0821 119.343C57.6197 118.873 57.0476 118.817 56.0593 118.841L56.0312 118.606C57.3026 118.455 58.0195 118.359 58.5487 118.267L58.5761 118.496C58.1701 118.584 57.9974 118.67 58.0139 118.812C58.0308 118.887 58.0682 118.956 58.1218 119.012C58.5272 119.459 58.8899 119.922 58.9921 120.782C59.2448 122.903 58.0786 124.474 55.7859 124.748C53.5471 125.014 51.8676 123.732 51.62 121.65C51.5277 120.98 51.681 120.3 52.0516 119.735Z" fill="#CABAAE"/>
<path d="M55.9441 107.571C56.2794 107.572 56.6069 107.672 56.8853 107.859C57.1637 108.046 57.3805 108.311 57.5084 108.621C57.6363 108.931 57.6695 109.272 57.6038 109.6C57.5381 109.929 57.3766 110.231 57.1395 110.468C56.9024 110.705 56.6004 110.867 56.2715 110.933C55.9427 110.998 55.6018 110.965 55.2919 110.837C54.9819 110.709 54.7167 110.493 54.5298 110.214C54.3429 109.936 54.2427 109.608 54.2417 109.273C54.2406 109.049 54.284 108.827 54.3692 108.62C54.4544 108.413 54.5797 108.225 54.738 108.067C54.8963 107.909 55.0844 107.783 55.2914 107.698C55.4984 107.613 55.7203 107.57 55.9441 107.571Z" fill="#CABAAE"/>
</g>
<defs>
<filter id="filter0_d_2007_7342" x="0" y="0" width="186.666" height="216" filterUnits="userSpaceOnUse" color-interpolation-filters="sRGB">
<feFlood flood-opacity="0" result="BackgroundImageFix"/>
<feColorMatrix in="SourceAlpha" type="matrix" values="0 0 0 0 0 0 0 0 0 0 0 0 0 0 0 0 0 0 127 0" result="hardAlpha"/>
<feOffset dy="4"/>
<feGaussianBlur stdDeviation="18"/>
<feComposite in2="hardAlpha" operator="out"/>
<feColorMatrix type="matrix" values="0 0 0 0 0 0 0 0 0 0 0 0 0 0 0 0 0 0 0.35 0"/>
<feBlend mode="normal" in2="BackgroundImageFix" result="effect1_dropShadow_2007_7342"/>
<feBlend mode="normal" in="SourceGraphic" in2="effect1_dropShadow_2007_7342" result="shape"/>
</filter>
</defs>
</svg>
