<svg width="100" height="126" viewBox="0 0 100 126" fill="none" xmlns="http://www.w3.org/2000/svg">
<path d="M0 0H100V75.5814C100 103.196 77.6142 125.581 50 125.581C22.3858 125.581 0 103.196 0 75.5814V0Z" fill="#303030"/>
<path d="M44.5439 52.373L47.4233 49.8921H34.5195L37.3989 52.373V78.5626L34.5195 81.0435H47.4233L44.5439 78.5626V52.373Z" fill="#CABAAE"/>
<path d="M52.1611 49.8921L55.0405 52.373V57.9539L62.1855 60.1469V52.3732L65.0649 49.8922L52.1611 49.8921Z" fill="#CABAAE"/>
<path d="M65.6416 69.8835V63.1782L46.7266 57.3756V64.0433L55.0494 66.6134V78.5629L52.17 81.0438H65.0738L62.1944 78.5629V68.8192L65.6416 69.8835Z" fill="#CABAAE"/>
<path d="M12.6412 51.7818C12.6275 52.3628 12.7131 52.471 13.3713 52.5163L17.8608 52.8272C18.519 52.8733 18.6185 52.7696 18.6848 52.2015L18.8662 52.2111C18.828 52.5059 18.7833 53.0266 18.7443 53.5837C18.7081 54.1096 18.6776 54.6719 18.6724 55.0099L18.491 54.9969C18.5047 54.4165 18.4191 54.3084 17.761 54.2625L15.5871 54.1129L15.4207 56.5106L17.5946 56.6608C18.2527 56.7075 18.353 56.607 18.4191 56.0351L18.6005 56.0461C18.5597 56.3719 18.5138 56.9107 18.4787 57.414C18.4386 57.9934 18.4101 58.5377 18.4062 58.8442L18.2258 58.832C18.2388 58.2556 18.1533 58.1486 17.4952 58.102L13.0059 57.7912C12.3472 57.7452 12.2475 57.8456 12.1814 58.4137L12 58.4008C12.0389 58.0964 12.0856 57.554 12.1257 56.9746C12.1606 56.4695 12.1891 55.9305 12.1937 55.604L12.3751 55.6155C12.3615 56.1966 12.4476 56.3047 13.1058 56.35L15.2395 56.4977L15.4059 54.0992L13.2722 53.9515C12.6134 53.9062 12.5137 54.0053 12.4476 54.5779L12.2662 54.563C12.3071 54.2287 12.3554 53.6679 12.3912 53.1419C12.4301 52.5848 12.4573 52.0635 12.4598 51.7681L12.6412 51.7818Z" fill="#CABAAE"/>
<path d="M20.765 43.9751C21.2308 43.9713 21.4406 43.8048 21.5106 43.6461L21.6802 43.7055C21.5364 44.0352 21.3427 44.521 21.1666 44.9854C20.9671 45.512 20.7916 45.9997 20.7009 46.2905L20.5308 46.226C20.668 45.814 20.6784 45.5997 20.4465 45.5129C20.3045 45.4693 20.1557 45.4513 20.0074 45.4599L18.4223 45.4411L17.7228 47.283L18.2249 47.7337C18.4718 47.9787 18.7601 48.1781 19.0766 48.3225C19.5242 48.4921 19.7496 48.2461 19.9383 47.7868L20.1087 47.8502C19.9461 48.2298 19.8166 48.5452 19.6832 48.8975C19.5885 49.1462 19.5089 49.3814 19.4603 49.5582L19.2907 49.4934C19.3393 49.2278 19.2143 48.8956 18.6799 48.4183L14.4521 44.604C14.4949 44.5159 14.5364 44.4182 14.5759 44.3145C14.6135 44.2154 14.6484 44.1105 14.675 44.0173L20.765 43.9751ZM15.6281 45.4123L17.5775 47.1567L18.2298 45.4371L15.6281 45.4123Z" fill="#CABAAE"/>
<path d="M19.4616 35.6083C19.161 36.1045 19.1818 36.2405 19.729 36.6071L23.4653 39.1072C24.0132 39.4739 24.1487 39.4376 24.4913 38.9744L24.6415 39.0774C24.4453 39.339 24.1376 39.7827 23.8565 40.2011C23.5346 40.6823 23.2392 41.1395 23.084 41.4026L22.9336 41.3016C23.2307 40.8087 23.2108 40.6728 22.6629 40.3054L18.9273 37.8052C18.3794 37.4393 18.2439 37.4756 17.9033 37.9348L17.7529 37.8344C17.9376 37.5909 18.2472 37.1439 18.57 36.6621C18.8505 36.2437 19.1434 35.7909 19.3111 35.5066L19.4616 35.6083Z" fill="#CABAAE"/>
<path d="M30.8558 32.0539C30.8701 32.282 30.8297 32.5103 30.7379 32.7197C30.6462 32.9291 30.5059 33.1137 30.3285 33.2579C29.8504 33.6996 29.3758 33.8312 28.761 33.3688L28.0305 32.8128C27.419 32.3471 26.9513 32.0552 26.5355 32.4404L26.1028 32.84L27.5181 34.3712C27.9657 34.8557 28.1063 34.8524 28.5474 34.4813L28.6704 34.615C28.4178 34.8242 28.0149 35.1843 27.6444 35.527C27.2181 35.9201 26.8243 36.2966 26.6118 36.5168L26.4888 36.383C26.8937 35.973 26.9048 35.8358 26.4578 35.3513L23.4056 32.0473C22.958 31.5629 22.8168 31.5667 22.3796 31.9353L22.2559 31.8016C22.4922 31.6073 22.9113 31.2323 23.2851 30.8863C23.721 30.4834 24.1511 30.0624 24.3202 29.9058C25.5592 28.7607 26.5575 28.6282 27.2337 29.3599C27.7325 29.8994 27.9721 30.8172 26.928 32.029L26.9313 32.0265C27.8005 31.3497 28.3926 31.2791 29.0203 31.7235L29.8039 32.2713C30.2063 32.557 30.3954 32.6114 30.5616 32.4579C30.614 32.4065 30.6531 32.343 30.6754 32.273C30.6978 32.203 30.7027 32.1287 30.6898 32.0564L30.8558 32.0539ZM24.4659 31.0686L25.9803 32.7066L26.266 32.4423C27.0534 31.7156 26.7622 31.0679 26.1973 30.4565C25.5509 29.7583 24.955 29.5555 24.3501 30.1148C24.0087 30.4293 24.0416 30.61 24.4659 31.0686Z" fill="#CABAAE"/>
<path d="M39.5063 22.8324C39.6029 23.085 39.702 23.3163 39.7791 23.4672L39.5848 23.5424C38.751 22.2262 38.1266 21.9354 37.3372 22.2392L37.1514 22.3105L39.0114 27.1404C39.2771 27.8309 39.4681 27.8704 40.2233 27.5899L40.2887 27.7584C39.9247 27.8854 39.2912 28.114 38.6681 28.3543C38.045 28.5945 37.462 28.8335 37.1324 28.9741L37.067 28.805C37.8158 28.5079 37.9305 28.3491 37.6648 27.6592L35.8045 22.8299L35.6186 22.9012C34.8213 23.2089 34.5602 23.8358 34.8213 25.3768L34.6269 25.4511C34.5824 25.2877 34.5007 25.05 34.4041 24.7974C34.2959 24.5164 34.055 23.9405 33.792 23.3823C34.566 23.1122 35.6607 22.6906 36.4166 22.3991C37.1725 22.1076 38.2588 21.6893 39.014 21.3704C39.1902 21.9626 39.3982 22.5512 39.5063 22.8324Z" fill="#CABAAE"/>
<path d="M46.3779 25.4629C46.4459 26.1683 46.6183 26.2492 47.422 26.1812L47.4407 26.3794C47.0693 26.4021 46.4375 26.4493 45.7936 26.5114C45.2736 26.562 44.7547 26.6248 44.3641 26.6759L44.3465 26.4953C44.9166 26.4137 45.0091 26.3113 44.9463 25.6546L44.514 21.1758C44.4505 20.5196 44.3357 20.4374 43.7646 20.4659L43.7471 20.2845C44.0528 20.2729 44.6138 20.2275 45.1209 20.1789C45.7116 20.1219 46.3094 20.0468 46.538 20.0247C48.2183 19.8628 49.1083 20.515 49.2093 21.5642C49.2935 22.4373 48.8355 23.6375 46.7064 23.8429L46.2258 23.8895L46.3779 25.4629ZM45.9514 21.0371L46.2085 23.7087L46.5966 23.6717C47.6634 23.5694 47.8092 22.7273 47.7203 21.8062C47.611 20.6686 47.2559 20.1284 46.4358 20.208C45.9733 20.2527 45.891 20.416 45.9514 21.0371Z" fill="#CABAAE"/>
<path d="M62.5178 22.3992C62.5517 22.4565 62.6037 22.5009 62.6655 22.5255C62.7885 22.5618 62.9032 22.4199 63.0424 22.0734L63.2419 22.1317C63.0858 22.5708 62.9018 23.1673 62.5903 24.2296L62.3863 24.1702C62.5269 23.3438 62.5398 22.891 62.1939 22.4024C61.9791 22.0345 61.6294 21.7647 61.219 21.6503C59.9696 21.2837 59.0575 22.5999 58.6074 24.1389C58.1501 25.6979 58.2582 27.2667 59.5032 27.6314C59.904 27.7532 60.3363 27.7163 60.7106 27.5284C61.2631 27.3114 61.5113 26.8587 61.8409 26.0315L62.0449 26.0917C61.721 27.1967 61.5468 27.8236 61.4358 28.2946L61.2363 28.2363C61.3068 27.8691 61.2978 27.6962 61.174 27.6599C61.1058 27.6471 61.0354 27.6534 60.9706 27.678C60.457 27.8556 59.9465 27.9922 59.1984 27.7733C57.3541 27.2318 56.4659 25.7117 57.0502 23.7186C57.6203 21.7725 59.2746 20.8356 61.085 21.3661C61.6716 21.5264 62.1804 21.8933 62.5178 22.3992Z" fill="#CABAAE"/>
<path d="M70.2292 25.9208C69.6935 25.6183 69.5427 25.6339 69.1934 26.1928L66.7568 30.099C66.4568 30.5796 66.4938 30.6968 66.8993 30.9495L67.275 31.1834C67.985 31.6264 68.9565 31.2725 69.7467 30.3413L69.9229 30.4514C69.798 30.6178 69.6424 30.8505 69.4785 31.1134C69.3289 31.3538 69.027 31.8544 68.7725 32.3628C68.264 32.015 67.5432 31.5649 67.025 31.2416C66.5106 30.921 65.3577 30.2017 64.5059 29.7019L64.6017 29.5477C65.1043 29.83 65.2396 29.8049 65.5888 29.2453L67.9685 25.4296C68.3176 24.8694 68.2768 24.7347 67.806 24.4102L67.9018 24.2587C68.1518 24.4362 68.6091 24.7316 69.1015 25.0379C69.5484 25.317 70.0303 25.6066 70.3251 25.7672L70.2292 25.9208Z" fill="#CABAAE"/>
<path d="M77.5447 31.9529C77.1146 31.5637 76.9766 31.5585 76.5129 32.0272L73.3499 35.2199C72.8861 35.6881 72.8959 35.829 73.2857 36.2524L73.1581 36.3813C72.9379 36.1384 72.5609 35.7525 72.2027 35.3974C71.7907 34.9893 71.3982 34.6124 71.1689 34.411L71.296 34.282C71.7234 34.6674 71.8614 34.6732 72.3252 34.2049L75.4882 31.0118C75.9521 30.5435 75.9422 30.4027 75.5555 29.9825L75.6831 29.853C75.8871 30.0803 76.2681 30.4697 76.6793 30.8781C77.0381 31.233 77.4275 31.606 77.6729 31.8244L77.5447 31.9529Z" fill="#CABAAE"/>
<path d="M83.7381 40.6262C83.3676 40.1728 83.1104 40.211 82.363 40.669L78.048 43.3168C78.017 43.2573 77.9774 43.193 77.9379 43.129C77.8965 43.0609 77.855 42.9929 77.8051 42.916L80.0023 36.9587L77.0352 38.7771C76.1854 39.2978 76.0306 39.4857 76.3815 40.2104L76.2267 40.3069C76.1192 40.0978 75.9067 39.7344 75.7365 39.4545C75.5879 39.2122 75.4165 38.9486 75.3018 38.7952L75.4572 38.7006C75.8277 39.1534 76.0849 39.1158 76.8323 38.6578L80.3132 36.5255C80.8761 36.1802 80.9001 36.041 80.6215 35.5364L80.7769 35.4425C80.8604 35.6135 81.0179 35.8868 81.1655 36.1284C81.3159 36.3738 81.4713 36.6109 81.5976 36.782L79.7405 42.0317L82.1605 40.5491C83.0103 40.0291 83.1651 39.8412 82.8142 39.1164L82.969 39.0244C83.0766 39.2336 83.289 39.5977 83.4593 39.8769C83.6078 40.1192 83.7793 40.3827 83.894 40.5305L83.7381 40.6262Z" fill="#CABAAE"/>
<path d="M86.3561 47.6323C86.1547 47.0869 86.0348 47.0183 85.4065 47.2184L81.1184 48.5852C80.4895 48.7853 80.4331 48.9142 80.5827 49.4719L80.4097 49.529C80.3268 49.2116 80.172 48.6935 80.0178 48.2121C79.8416 47.6583 79.6681 47.1414 79.5586 46.8552L79.7315 46.8001C79.9316 47.341 80.0515 47.4091 80.6798 47.2093L84.9679 45.8426C85.5969 45.6425 85.6532 45.5129 85.5056 44.9604L85.6785 44.9053C85.7543 45.2024 85.911 45.7246 86.0872 46.2779C86.2401 46.759 86.4124 47.2714 86.5289 47.5766L86.3561 47.6323Z" fill="#CABAAE"/>
<path d="M87.468 57.1156C87.4265 57.1676 87.4031 57.2318 87.4013 57.2983C87.4104 57.4259 87.5833 57.4849 87.9571 57.494L87.9719 57.7019C87.5062 57.7091 86.8825 57.744 85.7781 57.823L85.7632 57.6112C86.5872 57.4544 87.0159 57.3081 87.3541 56.8138C87.6231 56.4837 87.7536 56.062 87.718 55.6375C87.6247 54.3388 86.0734 53.9431 84.4742 54.0578C82.8529 54.1744 81.4207 54.8233 81.5135 56.1174C81.5391 56.5353 81.7247 56.9273 82.0317 57.212C82.4274 57.655 82.9391 57.7288 83.8284 57.7496L83.8433 57.9615C82.6949 58.0438 82.0465 58.0995 81.5665 58.1602L81.5516 57.9523C81.9202 57.89 82.0795 57.8208 82.0704 57.6926C82.0582 57.624 82.0274 57.5601 81.9813 57.5079C81.636 57.0888 81.3297 56.6582 81.274 55.8803C81.1371 53.9631 82.2518 52.6001 84.3239 52.4515C86.3474 52.3071 87.8029 53.5299 87.9376 55.4129C87.9919 56.0186 87.8251 56.6234 87.468 57.1156Z" fill="#CABAAE"/>
<path d="M83.8964 67.6863C83.5946 67.6855 83.2999 67.5953 83.0493 67.427C82.7987 67.2588 82.6036 67.0202 82.4885 66.7412C82.3734 66.4622 82.3435 66.1554 82.4026 65.8594C82.4618 65.5635 82.6072 65.2917 82.8207 65.0783C83.0341 64.865 83.306 64.7196 83.6019 64.6606C83.8979 64.6015 84.2047 64.6315 84.4837 64.7466C84.7627 64.8618 85.0013 65.057 85.1694 65.3076C85.3376 65.5582 85.4277 65.853 85.4285 66.1548C85.4293 66.3562 85.3903 66.5558 85.3136 66.742C85.2369 66.9282 85.124 67.0974 84.9816 67.2398C84.8392 67.3822 84.6699 67.495 84.4837 67.5716C84.2974 67.6482 84.0978 67.6872 83.8964 67.6863Z" fill="#CABAAE"/>
<path d="M87.0046 81.2339C87.0492 80.6545 86.9697 80.5422 86.3141 80.4613L81.8454 79.9088C81.1905 79.8279 81.0842 79.9264 80.9877 80.4905L80.8076 80.4646C80.8614 80.1725 80.9339 79.655 81.0025 79.1011C81.0673 78.5777 81.1275 78.0189 81.1511 77.684L81.3312 77.7067C81.2866 78.2861 81.3661 78.3984 82.0217 78.4793L84.1857 78.7467L84.4811 76.3591L82.3171 76.0917C81.6616 76.0108 81.5559 76.1054 81.4594 76.6734L81.2787 76.65C81.3364 76.3268 81.4115 75.7918 81.4736 75.2906C81.545 74.7147 81.6026 74.1732 81.6222 73.8675L81.8029 73.8895C81.7583 74.4647 81.8378 74.5773 82.4934 74.6583L86.9621 75.2102C87.6176 75.2911 87.7225 75.1973 87.8191 74.6338L87.9997 74.6558C87.9446 74.9569 87.8688 75.4965 87.7977 76.0717C87.7354 76.5737 87.6788 77.1106 87.6552 77.4396L87.4751 77.4169C87.5197 76.8375 87.4402 76.7252 86.7854 76.6444L84.6608 76.382L84.3664 78.7689L86.4909 79.0319C87.1458 79.1135 87.2513 79.019 87.3484 78.4503L87.5285 78.4703C87.4691 78.8027 87.3918 79.3596 87.3276 79.883C87.259 80.4368 87.2033 80.9562 87.1844 81.2567L87.0046 81.2339Z" fill="#CABAAE"/>
<path d="M78.4431 88.5802C77.9787 88.5575 77.7597 88.7117 77.6814 88.8659L77.5156 88.7916C77.6776 88.4717 77.8977 87.9976 78.0992 87.5448C78.3278 87.0318 78.53 86.5551 78.6361 86.2734L78.8019 86.3466C78.6419 86.7509 78.6192 86.9639 78.8465 87.0643C78.986 87.1151 79.1333 87.1412 79.2818 87.1414L80.8616 87.249L81.6615 85.4504L81.1861 84.9723C80.9534 84.7141 80.6767 84.4992 80.369 84.3375C79.9324 84.1432 79.6935 84.3757 79.4797 84.8233L79.3139 84.749C79.4972 84.3799 79.6441 84.0728 79.797 83.7289C79.9046 83.486 79.9971 83.2567 80.0548 83.0838L80.2206 83.1581C80.1571 83.4205 80.264 83.7578 80.7703 84.2644L84.7746 88.3029C84.7266 88.3885 84.6794 88.4829 84.6346 88.5852C84.5913 88.6817 84.5504 88.7847 84.5194 88.8772L78.4431 88.5802ZM83.6468 87.4323L81.8007 85.5844L81.0539 87.2619L83.6468 87.4323Z" fill="#CABAAE"/>
<path d="M79.2841 97.0244C79.6124 96.5451 79.5995 96.4077 79.0722 96.0094L75.4787 93.2988C74.9514 92.9011 74.8128 92.9302 74.445 93.374L74.2998 93.2619C74.5109 93.0113 74.8439 92.5851 75.1483 92.1822C75.4974 91.7191 75.8188 91.2792 75.989 91.0248L76.1342 91.1343C75.8084 91.6096 75.8213 91.7477 76.3485 92.1454L79.9439 94.8567C80.4711 95.2538 80.6091 95.2253 80.9745 94.7848L81.1202 94.8943C80.9214 95.1268 80.5864 95.5563 80.2367 96.0194C79.9323 96.4223 79.6136 96.8595 79.4309 97.1336L79.2841 97.0244Z" fill="#CABAAE"/>
<path d="M67.6836 99.9301C67.6822 99.7012 67.7355 99.4752 67.839 99.2711C67.9426 99.067 68.0934 98.8905 68.2789 98.7564C68.7815 98.3425 69.2635 98.2377 69.8517 98.735L70.5499 99.3309C71.1342 99.8316 71.585 100.149 72.0228 99.7882L72.4776 99.4138L71.1504 97.803C70.7313 97.2939 70.5902 97.2894 70.1283 97.6352L70.013 97.4947C70.2773 97.3004 70.7003 96.9636 71.0903 96.6423C71.5379 96.2737 71.953 95.9201 72.1778 95.7115L72.2931 95.8521C71.8655 96.2383 71.8462 96.3755 72.2659 96.8852L75.1276 100.36C75.5473 100.869 75.6885 100.873 76.1464 100.531L76.2623 100.67C76.0149 100.851 75.575 101.202 75.1819 101.526C74.7233 101.904 74.2693 102.3 74.0918 102.447C72.7885 103.52 71.7839 103.596 71.1501 102.827C70.6818 102.259 70.4952 101.328 71.6074 100.177L71.6041 100.18C70.6967 100.807 70.1014 100.843 69.4997 100.363L68.7477 99.7714C68.3623 99.4631 68.1764 99.3984 68.0021 99.5428C67.9466 99.591 67.9037 99.6521 67.8773 99.7208C67.8509 99.7895 67.8417 99.8636 67.8506 99.9366L67.6836 99.9301ZM74.0126 101.278L72.5927 99.5546L72.2922 99.8027C71.4643 100.485 71.7182 101.148 72.2476 101.791C72.8532 102.526 73.4381 102.762 74.0742 102.238C74.4324 101.942 74.4091 101.76 74.012 101.278H74.0126Z" fill="#CABAAE"/>
<path d="M60.2869 108.182C60.1917 107.929 60.0945 107.697 60.0195 107.546L60.2144 107.472C61.0389 108.793 61.6608 109.089 62.4517 108.79L62.6383 108.719L60.8122 103.879C60.5518 103.187 60.3607 103.146 59.6042 103.422L59.54 103.252C59.9054 103.129 60.5394 102.904 61.1646 102.668C61.7898 102.432 62.3734 102.198 62.7044 102.059L62.7678 102.228C62.0177 102.52 61.9018 102.678 62.1628 103.37L63.9881 108.21L64.1747 108.14C64.974 107.839 65.2397 107.214 64.9889 105.672L65.1832 105.597C65.226 105.761 65.307 106 65.4022 106.253C65.5084 106.534 65.7455 107.112 66.0039 107.666C65.2279 107.93 64.1306 108.344 63.3734 108.63C62.6161 108.916 61.5261 109.326 60.7694 109.646C60.5972 109.054 60.3931 108.464 60.2869 108.182Z" fill="#CABAAE"/>
<path d="M53.4431 105.518C53.3778 104.812 53.2054 104.73 52.4032 104.796L52.3851 104.597C52.7565 104.576 53.3877 104.532 54.0316 104.472C54.5516 104.425 55.0705 104.364 55.4619 104.314L55.4787 104.495C54.908 104.574 54.8147 104.676 54.875 105.332L55.287 109.811C55.3472 110.468 55.4619 110.551 56.0333 110.524L56.0495 110.705C55.7437 110.716 55.1835 110.758 54.6762 110.804C54.0855 110.859 53.4877 110.931 53.2583 110.953C51.5788 111.108 50.6914 110.451 50.5954 109.401C50.515 108.53 50.9783 107.331 53.1074 107.135L53.588 107.091L53.4431 105.518ZM53.8493 109.943L53.6045 107.272L53.2158 107.308C52.149 107.406 52 108.246 52.0842 109.167C52.1891 110.305 52.5409 110.846 53.3608 110.77C53.8236 110.728 53.9065 110.565 53.8489 109.943L53.8493 109.943Z" fill="#CABAAE"/>
<path d="M39.2605 109.139C39.2235 109.084 39.1694 109.042 39.1063 109.02C38.9814 108.991 38.8731 109.138 38.7526 109.492L38.5498 109.443C38.6835 108.998 38.8374 108.392 39.0946 107.314L39.3013 107.363C39.2028 108.196 39.2132 108.65 39.5835 109.121C39.8172 109.477 40.1803 109.728 40.596 109.822C41.863 110.124 42.7057 108.763 43.0789 107.203C43.4558 105.622 43.268 104.061 42.0056 103.759C41.5991 103.658 41.169 103.717 40.8048 103.924C40.2638 104.168 40.0392 104.634 39.7516 105.477L39.5449 105.427C39.8123 104.306 39.9542 103.671 40.0404 103.195L40.2432 103.243C40.1913 103.614 40.2094 103.786 40.3345 103.816C40.4036 103.825 40.4739 103.815 40.5373 103.786C41.0413 103.583 41.5446 103.421 42.3025 103.602C44.1731 104.048 45.1376 105.521 44.6558 107.542C44.1848 109.516 42.5798 110.536 40.7441 110.097C40.1502 109.967 39.6232 109.627 39.2605 109.139Z" fill="#CABAAE"/>
<path d="M31.3672 106.001C31.9183 106.277 32.0687 106.253 32.3893 105.677L34.6306 101.648C34.9065 101.152 34.8638 101.037 34.4453 100.804L34.058 100.589C33.3254 100.181 32.3713 100.584 31.6277 101.556L31.4458 101.455C31.5624 101.28 31.7062 101.041 31.8571 100.77C31.9952 100.522 32.2716 100.006 32.501 99.4844C33.027 99.8077 33.7705 100.221 34.3049 100.518C34.836 100.813 36.0253 101.475 36.9023 101.932L36.8132 102.091C36.2969 101.834 36.1622 101.865 35.8415 102.443L33.6523 106.38C33.3317 106.958 33.3795 107.091 33.8661 107.392L33.778 107.554C33.5189 107.39 33.0467 107.117 32.5395 106.835C32.0789 106.578 31.5821 106.313 31.2783 106.16L31.3672 106.001Z" fill="#CABAAE"/>
<path d="M23.7726 100.317C24.2222 100.685 24.36 100.684 24.8019 100.194L27.8145 96.8497C28.2562 96.3595 28.2394 96.2195 27.8294 95.8147L27.9512 95.6794C28.1831 95.9119 28.5789 96.2799 28.9539 96.6186C29.3847 97.0066 29.7959 97.3648 30.035 97.5564L29.9132 97.6912C29.4675 97.3259 29.3296 97.3265 28.888 97.8161L25.8745 101.161C25.4328 101.651 25.4496 101.791 25.8564 102.193L25.7346 102.332C25.5196 102.114 25.1205 101.743 24.6891 101.355C24.3141 101.017 23.9066 100.661 23.6514 100.452L23.7726 100.317Z" fill="#CABAAE"/>
<path d="M17.1622 91.9458C17.5541 92.3803 17.8093 92.3298 18.5328 91.8369L22.7132 88.9942C22.7475 89.0518 22.7896 89.1141 22.8321 89.1762C22.8766 89.2415 22.9221 89.3076 22.9753 89.3737L21.0687 95.4252L23.9427 93.4685C24.7659 92.9075 24.9111 92.7126 24.5263 92.0053L24.6759 91.9056C24.7931 92.109 25.0225 92.4607 25.207 92.7315C25.3665 92.9647 25.5504 93.2192 25.6721 93.3663L25.5225 93.4687C25.1299 93.0347 24.8753 93.0846 24.1512 93.5781L20.7798 95.8735C20.235 96.2449 20.2176 96.3852 20.5193 96.8748L20.3697 96.9778C20.2772 96.8107 20.1073 96.547 19.9481 96.3125C19.7861 96.0748 19.6197 95.8462 19.4856 95.6797L21.0855 90.3496L18.7414 91.9464C17.9188 92.5066 17.7737 92.7022 18.1584 93.4089L18.0088 93.5146C17.891 93.3106 17.6616 92.9588 17.4777 92.6887C17.3183 92.4549 17.1344 92.201 17.0127 92.0481L17.1622 91.9458Z" fill="#CABAAE"/>
<path d="M14.1986 85.0589C14.4253 85.5937 14.5483 85.6561 15.1663 85.4267L19.3837 83.8606C20.0023 83.63 20.0523 83.4985 19.8772 82.9493L20.0477 82.8871C20.1448 83.1999 20.3249 83.709 20.5005 84.1825C20.7025 84.7265 20.9007 85.2337 21.0239 85.5136L20.8535 85.577C20.6281 85.0473 20.5049 84.9837 19.8878 85.2131L15.6695 86.7798C15.0503 87.0098 15.001 87.1412 15.1741 87.686L15.0044 87.7494C14.9144 87.456 14.733 86.9425 14.5309 86.3996C14.3553 85.9262 14.1595 85.4228 14.0283 85.1211L14.1986 85.0589Z" fill="#CABAAE"/>
<path d="M12.6243 75.6442C12.663 75.5902 12.6834 75.5253 12.6826 75.4589C12.6677 75.3319 12.4915 75.2814 12.118 75.2899L12.0928 75.0832C12.5578 75.0547 13.1791 74.9893 14.2789 74.8584L14.3042 75.0695C13.4887 75.2645 13.0663 75.431 12.7529 75.9413C12.4995 76.2836 12.3888 76.7108 12.4438 77.1331C12.598 78.4255 14.1672 78.7478 15.759 78.558C17.3731 78.3657 18.7729 77.6506 18.6193 76.3617C18.5739 75.9455 18.3703 75.5626 18.0506 75.2921C17.6346 74.8691 17.1198 74.8186 16.2305 74.84L16.2053 74.6289C17.3492 74.4928 17.9943 74.4061 18.4704 74.3232L18.4951 74.5298C18.1298 74.6089 17.9744 74.686 17.9892 74.8136C18.0045 74.8814 18.0381 74.9436 18.0864 74.9936C18.4511 75.3959 18.7775 75.8124 18.8695 76.5863C19.0968 78.4952 18.0475 79.9091 15.9845 80.1552C13.9701 80.3948 12.4588 79.2413 12.236 77.3675C12.1529 76.765 12.2909 76.1528 12.6243 75.6442Z" fill="#CABAAE"/>
<path d="M16.1227 64.6989C16.4244 64.6998 16.7191 64.79 16.9696 64.9582C17.2201 65.1263 17.4152 65.3649 17.5302 65.6438C17.6453 65.9227 17.6752 66.2294 17.6161 66.5253C17.557 66.8212 17.4116 67.0929 17.1983 67.3062C16.9849 67.5196 16.7132 67.665 16.4173 67.724C16.1214 67.7831 15.8147 67.7532 15.5358 67.6382C15.2569 67.5231 15.0183 67.3281 14.8501 67.0776C14.6819 66.8271 14.5917 66.5324 14.5908 66.2307C14.5899 66.0293 14.6289 65.8297 14.7056 65.6434C14.7822 65.4572 14.895 65.2879 15.0374 65.1455C15.1799 65.0031 15.3491 64.8903 15.5354 64.8136C15.7217 64.737 15.9213 64.698 16.1227 64.6989Z" fill="#CABAAE"/>
</svg>
